<svg width="213" height="84" fill="none" xmlns="http://www.w3.org/2000/svg"><path d="M11.056 44.263c-1.127 2.164-3.795 8.885-.345 14.386 3.98 6.33 11.937 12.843 24.104 11.048 11.753-1.75 14.513-5.317 14.904-11.555.299-4.81-2.852-4.81-3.381-5.317-.506-.506-.621-1.542.506-1.726h12.282c1.127.207 1.012 1.22.506 1.726-.506.507-3.358.484-3.381 5.317l-.023 2.555c0 1.542-.092 7.158-.092 7.158s.207 1.52-1.541 1.427c-2.254-.138-5.474.415-10.442 2.256-10.212 3.798-19.688 2.808-26.358-.3-8.073-3.774-11.707-8.446-14.053-14.776C2.11 52.066-1.8 54.344.96 50.685c1.955-2.578 4.508-7.872 5.221-9.092 0 0 2.047-3.475 3.75-4.488.758-.46.92.552 2.23 3.844.644 1.565-.207 1.542-1.104 3.314zm19.225-9.665c7.132.275 11.819 2.86 13.03 3.363.448.183.92-.915 1.188-1.715.18-.572.83-2.06.292-2.494-.47-.366-4.979-3.569-14.487-3.752h-.606c-9.53.16-14.016 3.386-14.51 3.752-.493.343.113 1.922.337 2.494.314.8.628 1.898 1.01 1.738 1.188-.526 6.01-3.157 13.163-3.409.023.023.135.023.583.023zM34 25.5c0 1.378-1.122 2.5-2.5 2.5a2.504 2.504 0 01-2.5-2.5c0-1.378 1.122-2.5 2.5-2.5s2.5 1.122 2.5 2.5zm-1.766-9.48s7.57 10.703 8.134 10.837c.987.2 1.316.2 3.056-.067s1.457-1.45 1.528-1.85c.07-.402.211-1.383-.846-.982-1.6.602-3.691 1.115-3.691 1.115L23.325.367s-.588-.825-1.81 0c-.965.669-.494 1.516.752 2.965 1.269 1.45 9.967 12.688 9.967 12.688z" fill="#05376B"/><path d="M29.76 16.02s-7.566 10.703-8.13 10.837c-.963.2-1.316.2-3.054-.067-1.74-.267-1.457-1.45-1.528-1.85-.07-.402-.211-1.383.846-.982 1.598.602 3.69 1.115 3.69 1.115L38.665.367s.588-.825 1.81 0c.986.669.493 1.516-.752 2.965-1.27 1.45-9.963 12.688-9.963 12.688zm22.324 28.573c.253 2.263-.092 3.407.967 3.407 1.06 0 1.128-.925 1.428-1.776.3-.876 1.358-5.378 3.523-6.425 1.244-.608 1.382-2.652.092-2.7-1.29-.05-3.247 1.313-5.895.072-.737-.34-1.06-.34-1.75 1.606 0 0-.737 1.996-.322 2.215.667.34 1.657.852 1.957 3.601zm-15.948 1.976c-.62-2.934-1.424-4.904-4.088-4.904-2.618 0-4.754 2.015-4.754 7.12 0 6.383 2.366 8.33 5.03 7.905 2.663-.425 3.375-2.306 4.455-4.523 0 0 .39-.246.987 0s.804.582.666.829c-1.447 4.165-3.881 5.934-6.683 6-5.304.135-8.749-4.075-8.749-9.65C23 43.613 27.019 39 31.841 39c1.286 0 2.411.313 3.606.873.367.18 1.607 1.277 1.997 1.434.575.246.919-.157 1.264-.74 0 0 .183-.313.62-.201.413.112.78.358.642.605l-2.503 5.687c-.826.112-1.331-.09-1.331-.09zM35.173 84c2.845 0 1.385-1.141 1.385-1.141l-2.25-1.79 2.67-5.864s.174-.291-.47-.18c-.94.157-2.423.247-3.314.27-.42 0-.494.2-.494.2l-1.188 3.022-1.212-3.021s-.074-.18-.494-.202c-.89-.022-2.375-.09-3.315-.268-.643-.112-.47.179-.47.179l2.672 5.863-2.251 1.79S24.982 84 27.827 84h7.346zM21.151 62.433l1.632 4.396s.113.247.476.382c.906.314 2.424.74 3.285.785.612.044.43-.27.43-.27l-1.268-3.297s-10.968-29.045-12.6-34.428c-1.609-5.383-.906-5.787-.816-8.276.091-2.086-1.903-1.996-2.696-1.211-.182.179-5.666 6.28-7.07 8.164-1.406 1.884.135 3.072 3.217 1.884 2.538-.965 3.83 2.287 3.83 2.287L21.99 64.654" fill="#05376B"/><path d="M40.785 62.533l-1.617 4.406s-.114.247-.478.382c-.91.315-2.367.607-3.232.675-.615.045-.433-.27-.433-.27l1.184-3.192s11.018-29.114 12.657-34.51c1.616-5.395.91-5.8.797-8.295-.091-2.091 1.912-2.001 2.709-1.214.182.18 5.69 6.295 7.102 8.183 1.412 1.889-.136 3.08-3.232 1.889-2.55-.967-3.848 2.293-3.848 2.293L39.942 64.758" fill="#05376B"/><path fill-rule="evenodd" clip-rule="evenodd" d="M91.546 25.293c1.168.034 2.124.05 2.869.05.745 0 1.701-.016 2.87-.05a98.904 98.904 0 012.716-.05c.423 0 1.007-.094 1.752-.28l.482 3.63c-.118.12-.321.178-.609.178-.152 0-.237-.042-.254-.127-.237-.947-.529-1.561-.876-1.84-.347-.28-1.003-.42-1.968-.42-1.794 0-2.725.128-2.793.382-.152.541-.228 1.388-.228 2.539v9.166c0 .982.076 1.769.228 2.361.034.118.271.233.711.343.44.11.745.165.914.165.068 0 .102.127.102.38 0 .136-.017.255-.05.356-1.694-.084-2.675-.127-2.946-.127-.085 0-1.1.043-3.047.127-.068-.068-.102-.194-.102-.38 0-.238.034-.356.102-.356.22 0 .546-.05.978-.153.431-.101.672-.22.723-.355.119-.457.178-1.21.178-2.26v-9.191c0-1.473-.076-2.345-.229-2.615-.135-.254-1.05-.381-2.742-.381-.965 0-1.62.14-1.968.419-.347.279-.639.893-.876 1.84-.017.085-.101.128-.254.128-.287 0-.49-.06-.609-.178l.483-3.631c.744.186 1.328.28 1.752.28.643 0 1.54.016 2.69.05zm19.021 5.586c1.135 0 1.947.406 2.438 1.219.491.812.736 2.065.736 3.758v2.742c0 .965.068 1.71.203 2.234.034.118.254.233.66.343.407.11.695.165.864.165.051 0 .084.101.101.304.017.204.009.348-.025.432a179.963 179.963 0 00-2.717-.127c-.051 0-.939.043-2.666.127-.068-.068-.101-.207-.101-.419 0-.211.033-.317.101-.317.203 0 .487-.055.851-.165.364-.11.563-.224.596-.343.119-.49.178-1.083.178-1.777v-2.692c0-1.557-.216-2.602-.647-3.136-.432-.533-1.096-.8-1.993-.8-.508 0-1.012.2-1.511.597-.5.398-.749.75-.749 1.054v4.494c0 .982.067 1.735.203 2.26.034.118.254.233.66.343.406.11.694.165.863.165.051 0 .085.101.102.304.017.204.008.348-.026.432a180.24 180.24 0 00-2.716-.127c-.102 0-1.024.043-2.768.127-.068-.068-.101-.207-.101-.419 0-.211.033-.317.101-.317.203 0 .504-.055.901-.165.398-.11.614-.224.648-.343.118-.49.178-1.075.178-1.752V28.06c0-.575-.051-1.117-.153-1.624-.084-.271-.516-.407-1.295-.407h-.228c-.102 0-.152-.093-.152-.279 0-.27.05-.406.152-.406.508-.051.977-.119 1.409-.203.432-.085.77-.17 1.016-.254.245-.085.452-.165.622-.242.169-.076.288-.14.355-.19l.127-.076h.051c.068 0 .135.046.203.14a.69.69 0 01.127.266c-.186.542-.279 1.278-.279 2.21v5.56c0 .067.017.101.051.101.016 0 .042-.017.076-.05.372-.407.901-.796 1.587-1.169.685-.372 1.341-.558 1.967-.558zm10.998.99c-.88 0-1.553.377-2.018 1.13-.466.753-.698 1.375-.698 1.866 0 .119.05.178.152.178h4.951c.085 0 .127-.085.127-.254 0-.542-.228-1.164-.685-1.866-.457-.703-1.067-1.054-1.829-1.054zm.254-.94c.779 0 1.465.149 2.057.445.592.296 1.045.677 1.358 1.143.314.465.542.94.686 1.421.144.483.216.961.216 1.435 0 .339-.051.546-.153.622-.101.076-.296.114-.584.114h-6.398c-.135 0-.203.043-.203.127 0 1.067.321 2.049.965 2.946.643.897 1.574 1.345 2.793 1.345.355 0 .694-.034 1.015-.101a4.673 4.673 0 001.828-.787l.178-.127c.102 0 .152.11.152.33 0 .135-.05.288-.152.457-.338.474-.838.901-1.498 1.282a4.25 4.25 0 01-2.158.571c-1.405 0-2.611-.529-3.618-1.587-1.007-1.057-1.511-2.348-1.511-3.872 0-1.777.478-3.182 1.435-4.215.956-1.032 2.154-1.548 3.592-1.548zm13.719-5.61c.406 0 1.456-.043 3.149-.128.033.068.046.208.038.42-.009.21-.038.317-.089.317-.119 0-.28.017-.483.05a2.025 2.025 0 00-.66.254c-.237.136-.355.314-.355.534 0 .49 1.066 3.343 3.199 8.556.457 1.151.821 2.048 1.092 2.692.05.084.122.105.216.063a.35.35 0 00.19-.19l3.809-9.192c.321-.83.482-1.422.482-1.777 0-.237-.135-.44-.406-.61a2.175 2.175 0 00-.775-.317 3.67 3.67 0 00-.596-.063c-.068 0-.102-.106-.102-.318 0-.211.034-.35.102-.419 1.574.085 2.479.127 2.716.127.017 0 .872-.042 2.565-.127.034.102.051.229.051.381 0 .237-.034.356-.102.356-.762 0-1.269.237-1.523.71a29.87 29.87 0 00-1.244 2.616l-5.079 12.137c-.22.558-.516.837-.888.837a.262.262 0 01-.254-.152l-5.205-13.127c-.423-1.117-.804-1.93-1.143-2.437-.118-.186-.364-.33-.736-.432-.373-.101-.669-.152-.889-.152-.068 0-.101-.11-.101-.33 0-.203.033-.339.101-.407.271.017.593.034.965.051.372.017.707.034 1.003.051.296.017.614.025.952.025zm15.563 2.538a1.293 1.293 0 01-.356-.914c0-.355.123-.656.368-.901.246-.245.546-.368.902-.368.355 0 .656.123.901.368s.368.546.368.901c0 .356-.123.656-.368.902a1.225 1.225 0 01-.901.368 1.29 1.29 0 01-.914-.356zm2.082 10.715c0 .982.067 1.735.203 2.26.034.118.254.233.66.343.406.11.694.165.863.165.051 0 .085.101.102.304.017.204.008.348-.026.432a180.24 180.24 0 00-2.716-.127c-.119 0-1.041.043-2.768.127-.068-.068-.102-.207-.102-.419 0-.211.034-.317.102-.317.203 0 .504-.055.901-.165.398-.11.614-.224.648-.343.118-.49.178-1.083.178-1.777v-4.8c0-.66-.119-1.116-.356-1.37a1.296 1.296 0 00-.622-.42 2.142 2.142 0 00-.609-.113c-.161 0-.242-.017-.242-.051 0-.407.051-.618.153-.635 1.794-.27 2.962-.49 3.504-.66l.05-.026h.077c.067 0 .11.072.127.216.016.144.016.25 0 .318a14.808 14.808 0 00-.127 1.828v5.23zm7.849-7.642c1.862 0 3.149.431 3.86 1.295 0 1.134-.314 1.7-.94 1.7-.288 0-.508-.063-.66-.19-.152-.127-.347-.36-.584-.698-.525-.779-1.151-1.168-1.879-1.168-.694 0-1.324.33-1.891.99-.568.66-.851 1.642-.851 2.946 0 1.354.334 2.48 1.003 3.377.668.897 1.595 1.345 2.78 1.345.356 0 .694-.034 1.016-.101a4.93 4.93 0 00.825-.241 4.814 4.814 0 001.003-.546l.178-.127c.101 0 .152.11.152.33 0 .135-.051.288-.152.457-.339.474-.838.901-1.498 1.282-.661.38-1.38.571-2.159.571-1.405 0-2.611-.529-3.618-1.587-1.007-1.057-1.511-2.348-1.511-3.872 0-1.557.424-2.907 1.27-4.05.846-1.142 2.065-1.713 3.656-1.713zm6.199 1.574h-1.472c-.085 0-.127-.178-.127-.533 0-.102.008-.161.025-.178.491-.22 1.024-.669 1.6-1.346.186-.22.368-.47.546-.749.177-.28.326-.52.444-.723.119-.204.178-.314.178-.33.508 0 .762.042.762.127v2.513c.44 0 1.108.004 2.005.013l1.422.013c.136 0 .203.076.203.228 0 .305-.084.626-.254.965h-3.376v6.22c0 .678.173 1.22.52 1.626.347.406.8.609 1.358.609.508 0 1.033-.16 1.575-.482.05-.034.127.038.228.215.102.178.144.275.127.292-.254.271-.643.538-1.168.8a3.591 3.591 0 01-1.625.394c-.846 0-1.553-.28-2.12-.838-.567-.559-.851-1.354-.851-2.387v-6.45zm11.862-.61c-.897 0-1.629.411-2.197 1.232-.567.82-.85 1.824-.85 3.009 0 1.388.36 2.577 1.079 3.567.719.99 1.562 1.486 2.526 1.486.898 0 1.634-.424 2.209-1.27.576-.846.864-1.862.864-3.047 0-1.371-.364-2.543-1.092-3.517-.728-.973-1.574-1.46-2.539-1.46zm.279-.99c1.524 0 2.827.55 3.91 1.65 1.084 1.101 1.625 2.421 1.625 3.962 0 1.557-.529 2.89-1.587 3.999-1.058 1.108-2.357 1.663-3.897 1.663-1.541 0-2.852-.555-3.936-1.663-1.083-1.11-1.625-2.442-1.625-4 0-1.574.525-2.902 1.575-3.986 1.049-1.083 2.361-1.625 3.935-1.625zm13.69 0c.998 0 1.658.246 1.98.737 0 .592-.093 1.024-.279 1.294-.187.271-.415.407-.686.407-.305 0-.584-.144-.838-.432-.254-.288-.601-.431-1.041-.431-.524 0-.982.245-1.371.736-.389.49-.584 1.007-.584 1.549v3.808c0 .982.068 1.735.203 2.26.034.118.258.233.673.343.415.11.707.165.876.165.051 0 .085.101.102.304.017.204.008.348-.026.432a162.97 162.97 0 00-2.742-.127c-.101 0-1.024.043-2.767.127-.068-.068-.102-.207-.102-.419 0-.211.034-.317.102-.317.203 0 .503-.055.901-.165.398-.11.613-.224.647-.343.119-.49.178-1.083.178-1.777v-4.8c0-.66-.118-1.116-.355-1.37a1.3 1.3 0 00-.622-.42 2.148 2.148 0 00-.61-.113c-.161 0-.241-.017-.241-.051 0-.407.051-.618.152-.635 1.795-.27 2.963-.49 3.504-.66a.342.342 0 00.076-.013l.051-.012c.068 0 .11.071.127.215a.962.962 0 010 .318l-.152 1.27c.304-.458.723-.885 1.257-1.283.533-.398 1.062-.597 1.587-.597zm4.472-3.047a1.292 1.292 0 01-.355-.914c0-.355.122-.656.368-.901.245-.245.546-.368.901-.368.356 0 .656.123.902.368.245.245.368.546.368.901 0 .356-.123.656-.368.902a1.227 1.227 0 01-.902.368c-.355 0-.66-.119-.914-.356zm2.082 10.715c0 .982.068 1.735.203 2.26.034.118.254.233.66.343.407.11.695.165.864.165.051 0 .084.101.101.304.017.204.009.348-.025.432a179.963 179.963 0 00-2.717-.127c-.118 0-1.041.043-2.767.127-.068-.068-.102-.207-.102-.419 0-.211.034-.317.102-.317.203 0 .503-.055.901-.165.398-.11.614-.224.647-.343.119-.49.178-1.083.178-1.777v-4.8c0-.66-.118-1.116-.355-1.37a1.3 1.3 0 00-.622-.42 2.148 2.148 0 00-.61-.113c-.161 0-.241-.017-.241-.051 0-.407.051-.618.152-.635 1.795-.27 2.963-.49 3.504-.66l.051-.026h.076c.068 0 .11.072.127.216a.962.962 0 010 .318 15.006 15.006 0 00-.127 1.828v5.23zm5.539 1.803c.288.237.66.355 1.117.355.457 0 .898-.14 1.321-.418.423-.28.635-.563.635-.851v-2.615c-.136.067-.466.186-.991.355-.524.17-.935.318-1.231.444-.296.127-.584.339-.863.635a1.45 1.45 0 00-.419 1.029c0 .457.144.812.431 1.066zm2.387-9.445c.931 0 1.6.224 2.006.672.406.45.609 1.173.609 2.171v5.866c0 .355.093.651.28.888.186.237.44.356.761.356.237 0 .533-.119.889-.356.068 0 .101.068.101.203 0 .22-.042.398-.126.534-.694.592-1.287.888-1.778.888-.389 0-.762-.16-1.117-.482-.355-.322-.601-.66-.736-1.016-.017 0-.081.055-.191.165a4.77 4.77 0 01-.444.381 7.605 7.605 0 01-.648.444 3.63 3.63 0 01-.863.381c-.33.102-.664.153-1.003.153-.778 0-1.422-.208-1.929-.622-.508-.415-.762-1.037-.762-1.866 0-.373.093-.724.279-1.054.186-.33.406-.601.66-.813.254-.211.601-.427 1.041-.647a10.1 10.1 0 011.13-.495c.313-.11.724-.25 1.232-.42.507-.169.863-.296 1.066-.38.152-.05.229-.178.229-.381v-1.904c0-.542-.17-.96-.508-1.257a1.79 1.79 0 00-1.219-.444c-.508 0-.931.173-1.27.52-.338.347-.507.8-.507 1.358 0 .593-.347.89-1.041.89-.474 0-.804-.162-.991-.483 0-.728.534-1.452 1.6-2.171 1.066-.72 2.15-1.08 3.25-1.08zM101.487 58.824c0-2.403.804-4.464 2.412-6.182 1.608-1.719 3.58-2.578 5.916-2.578 1.202 0 3.208.381 6.018 1.143.068 1.93.102 2.98.102 3.148 0 .254-.178.381-.534.381-.169 0-.279-.042-.33-.127-.457-2.319-2.183-3.478-5.179-3.478-1.693 0-3.107.72-4.241 2.158-1.134 1.439-1.701 3.174-1.701 5.205 0 1.88.622 3.61 1.866 5.193 1.245 1.582 2.806 2.374 4.685 2.374 1.49 0 2.59-.187 3.301-.559.118-.05.177-.178.177-.38l-.025-2.083v-.178c0-1.1-.068-1.828-.203-2.183-.068-.17-.343-.305-.825-.406-.483-.102-.859-.153-1.13-.153-.068 0-.102-.106-.102-.317 0-.212.034-.352.102-.42 2.167.085 3.275.128 3.326.128.135 0 1.05-.043 2.742-.127.034.101.051.22.051.355 0 .254-.034.381-.102.381-.101 0-.334.055-.698.165-.364.11-.622.208-.774.292-.169.119-.254.686-.254 1.701 0 .356.013.74.038 1.156.025.414.038.639.038.673 0 .304.059.6.178.888.118.288.178.457.178.508 0 .135-.212.288-.635.457-.034.017-.199.08-.495.19-.297.11-.487.182-.572.216a9.387 9.387 0 01-.571.19 6.661 6.661 0 01-.711.191 80.85 80.85 0 00-.762.152c-.33.068-.643.115-.939.14-.296.026-.643.05-1.041.076-.398.026-.817.038-1.257.038-2.234 0-4.134-.82-5.7-2.463-1.566-1.641-2.349-3.596-2.349-5.865zm22.957-1.93c-.897 0-1.629.411-2.196 1.232-.567.82-.851 1.824-.851 3.009 0 1.388.36 2.577 1.08 3.567.719.99 1.561 1.486 2.526 1.486.897 0 1.633-.424 2.209-1.27.575-.846.863-1.862.863-3.047 0-1.371-.364-2.543-1.092-3.517-.727-.973-1.574-1.46-2.539-1.46zm.28-.99c1.523 0 2.826.55 3.91 1.65 1.083 1.101 1.625 2.421 1.625 3.962 0 1.557-.529 2.89-1.587 3.999-1.058 1.108-2.357 1.663-3.898 1.663-1.54 0-2.852-.555-3.935-1.663-1.083-1.11-1.625-2.442-1.625-4 0-1.574.525-2.902 1.574-3.986 1.05-1.083 2.361-1.625 3.936-1.625zm8.459 8.15V53.06a8.25 8.25 0 00-.153-1.625c-.084-.27-.516-.406-1.295-.406h-.228c-.102 0-.153-.093-.153-.279 0-.27.051-.406.153-.406.508-.051.977-.119 1.409-.203.432-.085.77-.17 1.016-.254.245-.085.452-.165.622-.242.169-.076.296-.14.381-.19l.101-.076h.051c.068 0 .135.047.203.14a.69.69 0 01.127.266c-.186.542-.279 1.278-.279 2.21v11.577c0 .982.067 1.735.203 2.26.034.119.254.233.66.343.406.11.694.165.863.165.051 0 .085.101.102.304.017.204.008.347-.026.432a180.24 180.24 0 00-2.716-.127c-.102 0-1.024.043-2.768.127-.068-.067-.102-.207-.102-.419 0-.211.034-.317.102-.317.203 0 .504-.055.901-.165.398-.11.614-.224.648-.343.118-.49.178-1.083.178-1.777zm11.455-14.7c1.218 0 2.022.33 2.412.99 0 1.066-.305 1.6-.914 1.6-.22 0-.432-.132-.635-.394a9.647 9.647 0 00-.698-.8 1.278 1.278 0 00-.952-.406c-.745 0-1.321.457-1.727 1.37-.406.915-.609 1.99-.609 3.226v1.294c0 .085.042.127.127.127h2.818c.085 0 .127.06.127.178 0 .27-.102.61-.305 1.016h-2.615c-.102 0-.152.05-.152.152v5.865c0 .914.076 1.668.228 2.26.034.119.241.233.622.343.381.11.648.165.8.165.051 0 .085.101.102.304.017.204.008.347-.026.432a179.963 179.963 0 00-2.717-.127c-.05 0-.939.043-2.666.127-.033-.034-.059-.114-.076-.241a1.155 1.155 0 010-.343c.017-.101.043-.152.076-.152.204 0 .491-.055.864-.165.372-.11.575-.224.609-.343.169-.66.254-1.413.254-2.26v-5.84c0-.118-.042-.177-.127-.177h-1.346c-.05 0-.076-.051-.076-.153 0-.152.136-.364.406-.634.271-.271.559-.407.864-.407h.152c.085 0 .127-.05.127-.152v-.33c0-1.777.529-3.31 1.587-4.596 1.058-1.286 2.213-1.93 3.466-1.93zm21.513 13c0 .186-.118.833-.355 1.942s-.406 1.688-.508 1.74c-1.236.744-3.258 1.116-6.068 1.116-2.235 0-4.135-.82-5.7-2.463-1.566-1.641-2.349-3.596-2.349-5.865 0-2.403.804-4.464 2.412-6.182 1.608-1.719 3.58-2.578 5.916-2.578 1.997 0 4.054.212 6.17.635a768.969 768.969 0 00-.051 3.657c0 .253-.178.38-.533.38-.169 0-.279-.042-.33-.127a7.181 7.181 0 00-.191-.672c-.076-.229-.237-.525-.482-.89a3.902 3.902 0 00-.889-.939c-.347-.262-.838-.49-1.472-.685-.635-.195-1.35-.292-2.146-.292-1.659 0-3.072.732-4.24 2.196-1.168 1.464-1.752 3.119-1.752 4.964 0 1.371.237 2.632.711 3.783a6.619 6.619 0 002.247 2.857c1.024.753 2.239 1.13 3.644 1.13 1.675 0 2.97-.491 3.884-1.473.237-.254.445-.588.622-1.003.178-.415.314-.762.407-1.041.093-.28.165-.419.215-.419a2.452 2.452 0 01.711.152l.127.077zm2.518 1.7V53.06c0-.575-.051-1.117-.152-1.625-.085-.27-.517-.406-1.295-.406h-.229c-.101 0-.152-.093-.152-.279 0-.27.051-.406.152-.406.508-.051.978-.119 1.409-.203a7.92 7.92 0 001.016-.254 7.34 7.34 0 00.622-.242c.169-.076.296-.14.381-.19l.101-.076h.051c.068 0 .136.047.203.14a.69.69 0 01.127.266c-.186.542-.279 1.278-.279 2.21v11.577c0 .982.068 1.735.203 2.26.034.119.254.233.66.343.407.11.694.165.864.165.05 0 .084.101.101.304.017.204.009.347-.025.432a180.67 180.67 0 00-2.717-.127c-.102 0-1.024.043-2.768.127-.067-.067-.101-.207-.101-.419 0-.211.034-.317.101-.317.204 0 .504-.055.902-.165.398-.11.613-.224.647-.343.119-.49.178-1.083.178-1.777zm14.459-5.712v5.078c0 .728.059 1.371.178 1.93.034.118.127.211.279.279.152.068.313.11.482.127.17.017.339.025.508.025l.229.026c.05.017.076.11.076.279a.76.76 0 01-.064.241c-.042.11-.088.165-.139.165a10.642 10.642 0 00-1.727.28 21.31 21.31 0 00-.762.203 7.618 7.618 0 00-.558.177l-.229.051c-.135 0-.203-.135-.203-.406v-1.295l-.051-.127c-1.117 1.202-2.225 1.803-3.326 1.803-.626 0-1.163-.157-1.612-.47a2.753 2.753 0 01-.99-1.244 7.276 7.276 0 01-.445-1.498 8.795 8.795 0 01-.127-1.51v-3.2c0-.66-.118-1.117-.355-1.371a1.296 1.296 0 00-.622-.42 2.148 2.148 0 00-.609-.113c-.161 0-.242-.017-.242-.051 0-.407.051-.618.153-.635 1.794-.27 2.962-.49 3.504-.66a.35.35 0 00.076-.013l.051-.013c.067 0 .11.072.126.216a.962.962 0 010 .318c-.101.812-.152 1.438-.152 1.879v3.427c0 1.304.195 2.264.584 2.882.389.618 1.024.927 1.904.927.508 0 .991-.199 1.448-.597.457-.398.685-.74.685-1.028v-4.748c0-.66-.118-1.117-.355-1.371a1.296 1.296 0 00-.622-.42 2.148 2.148 0 00-.61-.113c-.16 0-.241-.017-.241-.051 0-.407.051-.618.152-.635 1.795-.27 2.963-.49 3.504-.66a.358.358 0 00.077-.013l.05-.013c.068 0 .11.072.127.216a.962.962 0 010 .318c-.101.812-.152 1.421-.152 1.828zm8.332-2.463c1.625 0 2.899.554 3.821 1.663.923 1.109 1.384 2.29 1.384 3.542 0 1.608-.597 3.022-1.79 4.24-1.193 1.219-2.509 1.828-3.948 1.828a9.38 9.38 0 01-1.79-.165c-.567-.11-.893-.165-.978-.165-.152 0-.343.047-.571.14-.229.093-.36.14-.394.14a1.09 1.09 0 01-.317-.077c-.144-.05-.216-.11-.216-.177 0-.017.026-.157.076-.42.051-.262.102-.647.153-1.155.05-.507.076-1.074.076-1.7V53.06a8.25 8.25 0 00-.153-1.625c-.084-.27-.516-.406-1.294-.406h-.229c-.102 0-.152-.093-.152-.279 0-.27.05-.406.152-.406.508-.051.978-.119 1.409-.203.432-.085.77-.17 1.016-.254a7.34 7.34 0 00.622-.242c.169-.076.296-.14.381-.19l.101-.076h.051c.068 0 .136.047.203.14a.69.69 0 01.127.266c-.186.542-.279 1.278-.279 2.21v4.443c0 .186.025.279.076.279a.195.195 0 00.076-.026c.237-.169.601-.347 1.092-.533.491-.186.923-.28 1.295-.28zm-.813 1.244c-.473 0-.88.131-1.218.394-.339.262-.508.639-.508 1.13v5.916c0 .524.25.91.749 1.155s1.079.368 1.739.368c.965 0 1.718-.457 2.26-1.371.542-.914.812-1.947.812-3.098 0-1.337-.351-2.42-1.053-3.25-.703-.83-1.629-1.244-2.781-1.244z" fill="#05376B"/></svg>